# xmcd
#
# Track frame offsets:
#	150
#	26091
#	37988
#	56026
#	72648
#	101525
#
# Disc length: 1565 seconds
#
# Revision: 1
# Processed by: cddbd v1.5PL3 Copyright (c) Steve Scherf et al.
# Submitted via: audiograbber 1.81.03
#
DISCID=50061b06
DTITLE=Hucklebuck - Hucklebuck
DYEAR=2003
DGENRE=Blues
TTITLE0=You Just Bring Me Water
TTITLE1=Surf n' Turf
TTITLE2=Poker Machine
TTITLE3=Feel So Bad
TTITLE4=Sad Letter Blues
TTITLE5=Moving Through Georgia
EXTD=
EXTT0=
EXTT1=
EXTT2=
EXTT3=
EXTT4=
EXTT5=
PLAYORDER=
